<?xml version="1.0" encoding="UTF-8" standalone="no"?>
<svg
   width="1000"
   height="400"
   viewBox="0 0 264.58334 105.83333"
   version="1.1"
   id="svg5"
   inkscape:version="1.1.2 (0a00cf5339, 2022-02-04)"
   sodipodi:docname="nkl.svg"
   xmlns:inkscape="http://www.inkscape.org/namespaces/inkscape"
   xmlns:sodipodi="http://sodipodi.sourceforge.net/DTD/sodipodi-0.dtd"
   xmlns="http://www.w3.org/2000/svg"
   xmlns:svg="http://www.w3.org/2000/svg">
  <sodipodi:namedview
     id="namedview7"
     pagecolor="#ffffff"
     bordercolor="#666666"
     borderopacity="1.0"
     inkscape:pageshadow="2"
     inkscape:pageopacity="0.0"
     inkscape:pagecheckerboard="0"
     inkscape:document-units="px"
     showgrid="false"
     inkscape:zoom="1"
     inkscape:cx="702.5"
     inkscape:cy="296.5"
     inkscape:window-width="1898"
     inkscape:window-height="1152"
     inkscape:window-x="10"
     inkscape:window-y="36"
     inkscape:window-maximized="1"
     inkscape:current-layer="layer1"
     units="px" />
  <defs
     id="defs2" />
  <g
     inkscape:label="Layer 1"
     inkscape:groupmode="layer"
     id="layer1">
    <g
       aria-label="nkl_"
       id="text5322"
       style="font-size:101.6px;line-height:1.25;stroke-width:0.264582">
      <path
         d="m 17.890011,81.517067 h 10.0584 v -34.2392 c 5.08,-5.283199 8.8392,-7.924799 14.1224,-7.924799 7.5184,0 10.363199,4.064 10.363199,12.699999 v 29.464 h 10.0584 v -30.7848 c 0,-12.903199 -5.2832,-20.116799 -16.865599,-20.116799 -7.7216,0 -13.3096,4.064 -18.288,9.2456 h -0.4064 l -0.8128,-8.0264 h -8.2296 z"
         style="fill:#e6e6e6"
         id="path397" />
      <path
         d="m 79.866048,81.517067 h 10.0584 v -13.208 l 10.464802,-10.5664 17.0688,23.7744 h 11.0744 l -21.9456,-29.972 19.5072,-19.710399 h -11.2776 L 90.330848,56.421867 h -0.4064 V 9.482668 h -10.0584 z"
         style="fill:#e6e6e6"
         id="path399" />
      <path
         d="m 171.91568,82.736267 c 5.588,0 8.9408,-1.016 13.716,-2.8448 l -2.4384,-7.5184 c -3.3528,1.4224 -6.1976,2.1336 -8.9408,2.1336 -5.48639,0 -9.34719,-2.8448 -9.34719,-9.7536 V 9.482668 h -27.1272 v 8.0264 h 17.0688 v 46.634399 c 0,11.9888 5.9944,18.5928 17.06879,18.5928 z"
         style="fill:#e6e6e6"
         id="path401" />
      <path
         d="m 197.92532,96.350667 h 48.768 v -8.2296 h -48.768 z"
         style="fill:#e6e6e6"
         id="path403" />
    </g>
  </g>
</svg>
